<svg xmlns="http://www.w3.org/2000/svg" viewBox="0 0 64 64">
  <defs><linearGradient id="g" x1="0" y1="0" x2="1" y2="1"><stop offset="0" stop-color="#D39A67"/><stop offset="1" stop-color="#7C4424"/></linearGradient></defs>
  <rect width="64" height="64" rx="14" fill="#FBF5EE"/>
  <path d="M8 50 C 20 44, 27 38, 32 33 C 37 38, 44 44, 56 50" fill="none" stroke="url(#g)" stroke-width="3.2" stroke-linecap="round"/>
  <path d="M17 31 L24 11 L31 31 M20 24 H28 M34 11 V31 H41 Q46 31 46 26 Q46 21 40 21 H34 M34 21 H39 Q44 21 44 16 Q44 11 39 11 H34" fill="none" stroke="url(#g)" stroke-width="2.6" stroke-linejoin="round"/>
  <g fill="url(#g)"><rect x="29" y="40" width="3" height="3"/><rect x="33" y="40" width="3" height="3"/><rect x="29" y="44" width="3" height="3"/><rect x="33" y="44" width="3" height="3"/></g>
</svg>
